<?xml version="1.0" encoding="utf-8"?>
<!-- Generator: Adobe Illustrator 24.0.1, SVG Export Plug-In . SVG Version: 6.00 Build 0)  -->
<svg version="1.1" id="Layer_1" xmlns="http://www.w3.org/2000/svg" xmlns:xlink="http://www.w3.org/1999/xlink" x="0px" y="0px"
	 viewBox="0 0 377.01 377.01" style="enable-background:new 0 0 377.01 377.01;" xml:space="preserve">
<style type="text/css">
	.st0{fill:#FF7D00;}
	.st1{fill:#FFFFFF;}
</style>
<rect class="st0" width="377.01" height="377.01"/>
<g>
	<path class="st1" d="M215.76,116.9h17.15v60.63c0,3.47-2.09,6.59-5.29,7.92c-1.06,0.44-2.18,0.65-3.28,0.65
		c-2.23,0-4.27-1.14-6.06-2.51l-57.19-41.34v43.89h-17.15v-60.63c0-3.47,2.09-6.66,5.29-7.99c3.2-1.33,6.49-0.2,9.34,1.86
		l57.19,41.41V116.9z M319.9,149.26c-1.98-1.98-4.29-3.53-6.86-4.62c-2.67-1.13-5.49-1.67-8.4-1.67h-45.81
		c-2.45,0-4.44-1.99-4.44-4.44c0-2.45,1.99-4.44,4.44-4.44h54.29c4.74,0,8.57-3.84,8.57-8.57s-3.84-8.57-8.57-8.57h-54.29
		c-2.91,0-5.74,0.57-8.41,1.7c-2.57,1.09-4.88,2.64-6.86,4.62c-1.98,1.98-3.54,4.29-4.62,6.86c-1.13,2.67-1.7,5.5-1.7,8.41
		s0.57,5.74,1.7,8.41c1.09,2.57,2.64,4.88,4.62,6.86c1.98,1.98,4.29,3.54,6.86,4.62c2.67,1.13,5.5,1.7,8.41,1.7h45.81v-0.03
		c2.44,0,4.43,1.99,4.43,4.43s-1.99,4.43-4.43,4.43h-58.82c-4.74,0-8.57,3.84-8.57,8.57s3.84,8.57,8.57,8.57h58.82
		c2.91,0,5.74-0.57,8.4-1.7c2.57-1.09,4.88-2.64,6.86-4.62c1.98-1.98,3.53-4.29,4.62-6.86c1.13-2.67,1.7-5.49,1.7-8.4
		s-0.57-5.74-1.7-8.4C323.43,153.55,321.88,151.24,319.9,149.26z M139.85,151.52c0,19.12-15.5,34.62-34.62,34.62H64.87H57.1h-6.31
		v-34.62V116.9h54.44C124.35,116.9,139.85,132.4,139.85,151.52z M122.62,151.52c0-4.65-1.81-9.01-5.09-12.3
		c-3.28-3.28-7.65-5.09-12.3-5.09H68.02v17.39v17.39h37.21c4.65,0,9.01-1.81,12.3-5.09C120.81,160.53,122.62,156.17,122.62,151.52z"
		/>
	<g>
		<g>
			<path class="st1" d="M65.58,248.08c-1.34-1.04-3.17-1.56-5.45-1.56h-2.75v-2.93h5.85c0.81,0,1.49-0.29,1.95-0.83
				c0.45-0.5,0.67-1.07,0.67-1.77c0-0.68-0.21-1.28-0.64-1.8c-0.49-0.53-1.15-0.8-1.97-0.8h-8.47c-0.81,0-1.49,0.23-2.03,0.71
				c-0.54,0.51-0.82,1.2-0.82,2.06v16.15c0,0.82,0.29,1.54,0.86,2.07c0.55,0.48,1.22,0.72,2.01,0.72h5.85c2.15,0,3.89-0.6,5.17-1.77
				c1.34-1.2,2.02-2.91,2.02-5.09C67.83,251.01,67.07,249.27,65.58,248.08z M62.19,253.19c0,0.6-0.19,1.07-0.56,1.39
				c-0.38,0.34-0.88,0.51-1.5,0.51h-2.75v-3.56h2.41C61.91,251.53,62.19,252.37,62.19,253.19z"/>
			<path class="st1" d="M88.98,238.39c-0.77,0-1.42,0.24-1.96,0.74c-0.51,0.51-0.77,1.21-0.77,2.07v16.09
				c0,0.86,0.26,1.56,0.79,2.08c0.52,0.48,1.18,0.73,1.94,0.73c0.77,0,1.42-0.25,1.96-0.74c0.51-0.51,0.77-1.21,0.77-2.07V241.2
				c0-0.86-0.26-1.56-0.79-2.08C90.41,238.64,89.75,238.39,88.98,238.39z"/>
			<path class="st1" d="M82.88,247.98c-1.34-1.09-3.18-1.65-5.47-1.65h-2.32v-5.11c0-0.87-0.26-1.57-0.79-2.1
				c-0.52-0.49-1.18-0.73-1.94-0.73s-1.42,0.25-1.96,0.75c-0.51,0.51-0.77,1.22-0.77,2.08v16.11c0,0.82,0.29,1.52,0.86,2.06
				c0.55,0.48,1.23,0.72,2.01,0.72h5.43c2.15,0,3.89-0.61,5.18-1.82c1.33-1.25,2.01-2.97,2.01-5.13
				C85.12,250.93,84.37,249.19,82.88,247.98z M79.49,253.11c0,0.61-0.19,1.11-0.59,1.49c-0.35,0.36-0.85,0.54-1.48,0.54h-2.32v-3.82
				h1.98c0.82,0,1.43,0.18,1.86,0.54C79.31,252.17,79.49,252.57,79.49,253.11z"/>
			<path class="st1" d="M107.96,239.19c-0.49-0.53-1.1-0.79-1.86-0.79H95.64c-0.76,0-1.37,0.26-1.86,0.79
				c-0.45,0.48-0.67,1.08-0.67,1.78c0,0.69,0.2,1.25,0.59,1.72c0.45,0.57,1.11,0.85,1.95,0.85h2.5v13.73c0,0.87,0.26,1.57,0.79,2.1
				c0.52,0.49,1.18,0.73,1.94,0.73c0.77,0,1.42-0.25,1.96-0.75c0.51-0.51,0.77-1.22,0.77-2.08v-13.73h2.5c0.84,0,1.5-0.29,1.94-0.84
				c0.4-0.48,0.6-1.04,0.6-1.73C108.63,240.27,108.4,239.67,107.96,239.19z"/>
			<path class="st1" d="M118.82,238.39c-3.02,0-5.54,1.06-7.49,3.15c-1.92,2.03-2.89,4.62-2.89,7.71c0,3.06,0.97,5.65,2.89,7.71
				c1.95,2.09,4.47,3.15,7.49,3.15c3.04,0,5.57-1.06,7.52-3.15c1.89-2.06,2.85-4.66,2.85-7.7c0-3-0.98-5.58-2.91-7.65
				C124.32,239.47,121.81,238.39,118.82,238.39z M115.29,245.14c0.87-1.15,2.03-1.71,3.52-1.71c1.5,0,2.65,0.56,3.52,1.71
				c0.81,1.07,1.22,2.46,1.22,4.11c0,1.7-0.4,3.09-1.19,4.14c-0.85,1.13-2.01,1.68-3.55,1.68c-1.54,0-2.7-0.55-3.55-1.68
				c-0.79-1.05-1.19-2.44-1.19-4.14C114.07,247.6,114.48,246.21,115.29,245.14z"/>
			<path class="st1" d="M143.71,248.12c1.19-0.96,1.8-2.32,1.8-4.05c0-1.69-0.59-3.08-1.76-4.13c-1.1-1.02-2.51-1.54-4.18-1.54
				h-5.46c-0.81,0-1.49,0.23-2.03,0.71c-0.54,0.51-0.82,1.2-0.82,2.06v16.15c0,0.82,0.29,1.54,0.86,2.07
				c0.55,0.48,1.23,0.72,2.01,0.72h5.85c2.15,0,3.89-0.6,5.17-1.77c1.34-1.2,2.02-2.91,2.02-5.09c0-1.39-0.47-2.62-1.41-3.66
				C145.19,248.93,144.49,248.43,143.71,248.12z M141.55,253.19c0,0.6-0.19,1.07-0.56,1.38c-0.39,0.34-0.88,0.51-1.51,0.51h-2.75
				v-3.56h2.41C141.26,251.53,141.55,252.37,141.55,253.19z M136.73,246.51v-3.1h1.62c0.52,0,0.92,0.13,1.24,0.38
				c0.32,0.26,0.46,0.59,0.46,1.05c0,0.56-0.14,0.94-0.43,1.22c-0.32,0.3-0.72,0.44-1.27,0.44H136.73z"/>
			<path class="st1" d="M166.62,256.41l-5.57-15.29c-0.62-1.79-1.87-2.73-3.61-2.73c-1.7,0-2.91,0.91-3.6,2.72l-5.74,15.36
				l-0.09,0.31c-0.07,0.25-0.11,0.5-0.11,0.75c0,0.75,0.29,1.39,0.83,1.86c0.55,0.47,1.18,0.71,1.87,0.71c1.3,0,2.23-0.68,2.62-1.9
				l0.72-2.2h7.02l0.72,2.23c0.38,1.21,1.32,1.88,2.65,1.88c0.69,0,1.29-0.22,1.77-0.67c0.52-0.48,0.79-1.08,0.79-1.79
				c0-0.12-0.02-0.27-0.06-0.5C166.78,256.89,166.7,256.61,166.62,256.41z M159.29,250.93h-3.74l1.89-5.72L159.29,250.93z"/>
			<path class="st1" d="M180.89,238.39h-5c-5.02,0-7.68,2.44-7.68,7.05c0,1.67,0.58,3.07,1.72,4.15c0.78,0.73,1.77,1.27,2.97,1.6
				l-4.11,4.42c-0.48,0.52-0.73,1.09-0.73,1.67c0,0.72,0.26,1.39,0.76,1.93c0.79,0.85,1.87,1.13,3.07,0.65
				c0.29-0.13,0.72-0.36,1.01-0.74l5.3-6.45v4.58c0,0.87,0.26,1.57,0.79,2.1c0.52,0.49,1.18,0.73,1.94,0.73s1.42-0.25,1.96-0.75
				c0.51-0.52,0.77-1.22,0.77-2.08v-16.04C183.68,239.4,182.69,238.39,180.89,238.39z M174.39,244.05c0.38-0.34,0.88-0.51,1.51-0.51
				h2.32v3.84h-2.32c-0.63,0-1.12-0.17-1.49-0.52c-0.36-0.34-0.55-0.82-0.55-1.42C173.85,244.83,174.03,244.36,174.39,244.05z"/>
			<path class="st1" d="M207,238.39h-10.46c-0.76,0-1.37,0.26-1.86,0.79c-0.45,0.48-0.67,1.08-0.67,1.78c0,0.69,0.19,1.25,0.59,1.72
				c0.45,0.57,1.11,0.85,1.95,0.85h2.5v13.73c0,0.87,0.26,1.57,0.79,2.1c0.52,0.49,1.18,0.73,1.94,0.73c0.77,0,1.42-0.25,1.96-0.75
				c0.51-0.52,0.77-1.22,0.77-2.08v-13.73h2.5c0.84,0,1.5-0.29,1.94-0.84c0.4-0.48,0.6-1.05,0.6-1.73c0-0.7-0.23-1.3-0.67-1.78
				C208.37,238.65,207.76,238.39,207,238.39z"/>
			<path class="st1" d="M221,254.92h-4.65v-3.16h4.06c0.82,0,1.5-0.28,2.01-0.83c0.45-0.5,0.67-1.07,0.67-1.77
				c0-0.7-0.23-1.31-0.67-1.8c-0.48-0.52-1.17-0.8-2-0.8h-4.06v-2.98h4.4c0.82,0,1.48-0.28,1.95-0.83c0.45-0.5,0.67-1.07,0.67-1.77
				c0-0.68-0.21-1.28-0.64-1.8c-0.49-0.53-1.15-0.8-1.97-0.8h-7.05c-1.82,0-2.82,1.11-2.82,3.11v15.83c0,0.81,0.27,1.49,0.82,2
				c0.54,0.51,1.2,0.77,1.97,0.77H221c0.81,0,1.49-0.29,1.95-0.83c0.45-0.5,0.67-1.07,0.67-1.77c0-0.68-0.21-1.28-0.64-1.8
				C222.49,255.19,221.83,254.92,221,254.92z"/>
			<path class="st1" d="M242.49,255.72l-5.36-7.18l4.33-5.86c0.38-0.48,0.58-1.04,0.58-1.62c0-0.82-0.28-1.48-0.82-1.94
				c-0.52-0.48-1.18-0.73-1.94-0.73c-0.95,0-1.76,0.45-2.34,1.3l-3.03,4.29l-3.03-4.28c-0.59-0.86-1.4-1.31-2.34-1.31
				c-0.77,0-1.42,0.24-1.93,0.71c-0.55,0.48-0.83,1.13-0.83,1.95c0,0.57,0.2,1.13,0.57,1.6l4.34,5.88l-5.37,7.19
				c-0.19,0.27-0.3,0.54-0.38,0.75c-0.14,0.35-0.21,0.71-0.21,1.04c0,0.78,0.28,1.42,0.82,1.88c0.5,0.46,1.15,0.7,1.94,0.7
				c0.91,0,1.68-0.41,2.25-1.19l4.17-5.78l4.17,5.78c0.56,0.77,1.34,1.18,2.25,1.18c0.78,0,1.42-0.22,1.97-0.7
				c0.52-0.48,0.79-1.12,0.79-1.88c0-0.3-0.05-0.62-0.18-1.03C242.81,256.23,242.68,255.98,242.49,255.72z"/>
			<path class="st1" d="M260.59,238.39c-0.77,0-1.42,0.24-1.96,0.74c-0.51,0.51-0.77,1.21-0.77,2.07v5.41h-7.72v-5.41
				c0-0.86-0.26-1.56-0.79-2.08c-0.52-0.48-1.18-0.73-1.94-0.73s-1.42,0.24-1.96,0.74c-0.51,0.51-0.77,1.21-0.77,2.07v16.09
				c0,0.86,0.26,1.56,0.79,2.08c0.52,0.48,1.18,0.73,1.94,0.73s1.42-0.24,1.96-0.74c0.51-0.51,0.77-1.21,0.77-2.07v-5.58h7.72v5.58
				c0,0.86,0.26,1.56,0.79,2.08c0.52,0.48,1.18,0.73,1.94,0.73c0.77,0,1.42-0.24,1.96-0.74c0.51-0.51,0.77-1.21,0.77-2.07V241.2
				c0-0.86-0.26-1.56-0.79-2.08C262.01,238.64,261.36,238.39,260.59,238.39z"/>
			<path class="st1" d="M282.22,238.39c-0.9,0-1.67,0.39-2.27,1.17l-8.18,10.65v-9.01c0-0.86-0.26-1.56-0.79-2.08
				c-0.52-0.48-1.18-0.73-1.94-0.73c-0.77,0-1.42,0.24-1.96,0.74c-0.51,0.51-0.77,1.21-0.77,2.07v16.09c0,0.86,0.26,1.55,0.79,2.08
				c0.52,0.48,1.18,0.73,1.94,0.73c0.9,0,1.67-0.39,2.27-1.17l8.19-10.53v8.89c0,0.86,0.26,1.55,0.79,2.08
				c0.52,0.48,1.18,0.73,1.94,0.73c0.77,0,1.42-0.24,1.96-0.74c0.51-0.51,0.77-1.21,0.77-2.07V241.2c0-0.86-0.26-1.56-0.79-2.08
				C283.64,238.64,282.99,238.39,282.22,238.39z"/>
			<path class="st1" d="M297.62,248.59l4.95-4.86c1.07-1.07,1.57-1.92,1.57-2.69c0-0.75-0.28-1.39-0.85-1.91
				c-0.86-0.8-2.05-0.99-3.17-0.38c-0.32,0.2-0.57,0.41-0.77,0.64l-5.95,6.31v-4.6c0-0.82-0.27-1.48-0.79-1.97
				c-0.52-0.48-1.18-0.73-1.94-0.73c-0.8,0-1.47,0.27-1.96,0.8c-0.51,0.51-0.77,1.15-0.77,1.9v16.37c0,0.78,0.27,1.43,0.79,1.91
				c0.52,0.48,1.18,0.73,1.94,0.73c0.79,0,1.45-0.26,1.96-0.77c0.51-0.51,0.77-1.14,0.77-1.87v-5.69l6.32,6.81
				c0.95,1.01,1.82,1.52,2.6,1.52c0.75,0,1.39-0.21,1.91-0.62c0.6-0.48,0.9-1.14,0.9-1.94c0-0.77-0.46-1.64-1.36-2.57L297.62,248.59
				z"/>
			<path class="st1" d="M325.04,257.15c-0.04-0.26-0.11-0.54-0.2-0.74l-5.57-15.29c-0.62-1.79-1.87-2.73-3.61-2.73
				c-1.7,0-2.91,0.91-3.6,2.72l-5.74,15.36l-0.09,0.31c-0.07,0.25-0.11,0.5-0.11,0.75c0,0.75,0.29,1.39,0.83,1.86
				c0.55,0.47,1.18,0.71,1.87,0.71c1.3,0,2.23-0.68,2.62-1.9l0.72-2.2h7.02l0.72,2.23c0.38,1.21,1.32,1.88,2.65,1.88
				c0.69,0,1.29-0.22,1.77-0.67c0.52-0.48,0.79-1.08,0.79-1.79C325.1,257.53,325.08,257.38,325.04,257.15z M317.51,250.93h-3.74
				l1.89-5.71L317.51,250.93z"/>
		</g>
		<g>
			<path class="st1" d="M134.16,209.62c0-0.86-0.26-1.56-0.79-2.08c-0.52-0.48-1.18-0.73-1.94-0.73c-0.9,0-1.67,0.39-2.27,1.17
				l-8.18,10.65v-9.01c0-0.86-0.26-1.56-0.79-2.08c-0.52-0.48-1.18-0.73-1.94-0.73c-0.77,0-1.42,0.24-1.96,0.74
				c-0.51,0.51-0.77,1.21-0.77,2.07v16.09c0,0.86,0.26,1.56,0.79,2.08c0.52,0.48,1.18,0.73,1.94,0.73c0.9,0,1.67-0.39,2.26-1.17
				l8.19-10.53v8.89c0,0.86,0.26,1.56,0.79,2.08c0.52,0.48,1.18,0.73,1.94,0.73s1.42-0.24,1.96-0.74c0.51-0.51,0.77-1.21,0.77-2.07
				V209.62z"/>
			<path class="st1" d="M143.84,226.03c0.25,0,0.61-0.03,1.07-0.09c0.12-0.01,0.23-0.03,0.35-0.05c0.03,0.78,0.29,1.42,0.79,1.91
				c0.52,0.48,1.18,0.73,1.94,0.73c0.77,0,1.42-0.24,1.96-0.74c0.48-0.48,0.74-1.11,0.77-1.89c0.12,0.02,0.23,0.03,0.35,0.05
				c0.46,0.06,0.83,0.09,1.07,0.09c2.27,0,4.18-0.85,5.67-2.52c1.46-1.61,2.2-3.6,2.2-5.93c0-2.33-0.73-4.33-2.17-5.95
				c-1.5-1.67-3.42-2.52-5.7-2.52c-0.24,0-0.61,0.03-1.07,0.09c-0.12,0.01-0.25,0.02-0.37,0.03c-0.07-0.68-0.32-1.25-0.77-1.69
				c-0.52-0.48-1.17-0.73-1.94-0.73c-0.77,0-1.42,0.24-1.96,0.74c-0.43,0.43-0.69,0.99-0.75,1.67c-0.11-0.01-0.23-0.02-0.34-0.03
				c-0.49-0.06-0.86-0.09-1.1-0.09c-2.29,0-4.21,0.85-5.71,2.52c-1.44,1.62-2.17,3.62-2.17,5.95c0,2.34,0.75,4.33,2.23,5.92
				C139.69,225.19,141.59,226.03,143.84,226.03z M141.6,217.59c0-0.98,0.32-1.78,0.98-2.43c0.66-0.63,1.41-0.94,2.31-0.94
				c0.11,0,0.24,0.02,0.46,0.04l0.01,6.58c-0.25,0.06-0.4,0.08-0.48,0.08c-0.92,0-1.67-0.3-2.31-0.91
				C141.93,219.39,141.6,218.57,141.6,217.59z M150.61,220.85v-6.57l0.02-0.01c0.16-0.02,0.32-0.05,0.46-0.05
				c0.9,0,1.65,0.31,2.3,0.93c0.66,0.66,0.99,1.46,0.99,2.44c0,0.99-0.33,1.8-0.98,2.43c-0.64,0.61-1.39,0.91-2.31,0.91
				c-0.13,0-0.25-0.02-0.44-0.07L150.61,220.85z"/>
			<path class="st1" d="M177.56,214.24c0-2.18-0.76-4-2.27-5.39c-1.47-1.36-3.36-2.04-5.61-2.04h-5.03c-1.82,0-2.82,1.01-2.82,2.83
				v16.05c0,0.87,0.26,1.57,0.79,2.1c0.52,0.49,1.18,0.73,1.94,0.73s1.42-0.25,1.96-0.75c0.51-0.52,0.77-1.22,0.77-2.08v-4.08h2.55
				c2.19,0,3.95-0.65,5.4-1.98C176.79,218.26,177.56,216.44,177.56,214.24z M171.93,214.22c0,0.73-0.2,1.3-0.64,1.74
				c-0.42,0.46-0.97,0.69-1.69,0.69h-2.3v-4.84h2.3c0.72,0,1.27,0.22,1.69,0.67C171.73,212.92,171.93,213.47,171.93,214.22z"/>
			<path class="st1" d="M188.99,228.53c3.04,0,5.57-1.06,7.52-3.15c1.89-2.06,2.85-4.66,2.85-7.7c0-3-0.98-5.58-2.91-7.65
				c-1.96-2.13-4.47-3.21-7.46-3.21c-3.02,0-5.54,1.06-7.49,3.15c-1.92,2.03-2.89,4.62-2.89,7.71c0,3.06,0.97,5.65,2.89,7.71
				C183.45,227.47,185.97,228.53,188.99,228.53z M185.46,213.56c0.88-1.15,2.03-1.72,3.52-1.72c1.5,0,2.65,0.56,3.52,1.71
				c0.81,1.08,1.22,2.46,1.22,4.11c0,1.7-0.4,3.09-1.19,4.14c-0.85,1.13-2.01,1.69-3.55,1.69c-1.54,0-2.7-0.55-3.55-1.69
				c-0.79-1.05-1.19-2.44-1.19-4.14C184.25,216.02,184.66,214.63,185.46,213.56z"/>
			<path class="st1" d="M204.31,228.53h5.85c2.15,0,3.89-0.6,5.17-1.76c1.34-1.2,2.02-2.91,2.02-5.09c0-1.39-0.47-2.62-1.41-3.66
				c-0.59-0.66-1.29-1.16-2.07-1.47c1.19-0.96,1.8-2.32,1.8-4.05c0-1.69-0.59-3.08-1.76-4.13c-1.1-1.02-2.51-1.54-4.19-1.54h-5.46
				c-0.81,0-1.49,0.23-2.03,0.71c-0.54,0.51-0.82,1.2-0.82,2.06v16.15c0,0.82,0.29,1.54,0.86,2.07
				C202.85,228.28,203.52,228.53,204.31,228.53z M206.9,223.51v-3.56h2.41c2.12,0,2.41,0.84,2.41,1.66c0,0.6-0.19,1.07-0.56,1.39
				c-0.38,0.34-0.88,0.51-1.5,0.51H206.9z M206.9,214.93v-3.1h1.62c0.52,0,0.92,0.13,1.24,0.38c0.32,0.26,0.46,0.59,0.46,1.05
				c0,0.56-0.14,0.94-0.43,1.22c-0.32,0.3-0.72,0.44-1.26,0.44H206.9z"/>
			<path class="st1" d="M237.05,226.08c0-0.12-0.02-0.27-0.06-0.5c-0.04-0.26-0.11-0.54-0.2-0.74l-5.57-15.29
				c-0.62-1.79-1.87-2.73-3.61-2.73c-1.7,0-2.91,0.91-3.6,2.72l-5.74,15.37l-0.09,0.31c-0.07,0.25-0.11,0.5-0.11,0.75
				c0,0.75,0.29,1.39,0.83,1.85c0.55,0.47,1.18,0.71,1.87,0.71c1.3,0,2.23-0.68,2.62-1.9l0.72-2.2h7.02l0.72,2.23
				c0.38,1.21,1.32,1.88,2.65,1.88c0.69,0,1.29-0.22,1.77-0.67C236.79,227.38,237.05,226.78,237.05,226.08z M229.46,219.35h-3.74
				l1.89-5.71L229.46,219.35z"/>
			<path class="st1" d="M253.86,225.69v-16.04c0-1.83-0.99-2.83-2.79-2.83h-5c-5.02,0-7.68,2.44-7.68,7.05
				c0,1.67,0.58,3.07,1.72,4.15c0.78,0.73,1.77,1.27,2.97,1.61l-4.11,4.42c-0.48,0.52-0.73,1.09-0.73,1.67
				c0,0.72,0.26,1.39,0.76,1.93c0.79,0.85,1.87,1.13,3.08,0.65c0.29-0.13,0.72-0.36,1.01-0.74l5.3-6.45v4.58
				c0,0.87,0.26,1.57,0.79,2.1c0.52,0.49,1.18,0.73,1.94,0.73c0.77,0,1.42-0.25,1.96-0.75C253.6,227.25,253.86,226.55,253.86,225.69
				z M244.56,212.47c0.38-0.34,0.88-0.51,1.51-0.51h2.32v3.84h-2.32c-0.63,0-1.12-0.17-1.49-0.52c-0.36-0.34-0.55-0.82-0.55-1.42
				C244.02,213.25,244.2,212.78,244.56,212.47z"/>
			<path class="st1" d="M281.72,206.81c-0.9,0-1.67,0.39-2.27,1.17l-8.18,10.65v-9.01c0-0.86-0.26-1.56-0.79-2.08
				c-0.52-0.48-1.18-0.73-1.94-0.73c-0.77,0-1.42,0.24-1.96,0.74c-0.51,0.51-0.77,1.21-0.77,2.07v16.09c0,0.86,0.26,1.55,0.79,2.08
				c0.52,0.48,1.18,0.73,1.94,0.73c0.9,0,1.67-0.39,2.26-1.17l8.19-10.53v8.89c0,0.86,0.26,1.55,0.79,2.08
				c0.52,0.48,1.18,0.73,1.94,0.73c0.77,0,1.42-0.24,1.96-0.74c0.51-0.51,0.77-1.21,0.77-2.07v-16.09c0-0.86-0.26-1.56-0.79-2.08
				C283.14,207.06,282.49,206.81,281.72,206.81z"/>
			<path class="st1" d="M113.27,231.48c0.51-0.52,0.77-1.22,0.77-2.08v-3.02c0-0.85-0.27-1.55-0.8-2.08
				c-0.49-0.49-1.15-0.75-1.93-0.75h-0.11v-13.9c0-0.87-0.26-1.57-0.79-2.1c-0.52-0.49-1.18-0.73-1.94-0.73s-1.42,0.25-1.96,0.75
				c-0.51,0.52-0.77,1.22-0.77,2.08v13.9h-7.72v-13.9c0-0.87-0.26-1.57-0.79-2.1c-0.52-0.49-1.18-0.73-1.94-0.73
				c-0.77,0-1.42,0.25-1.96,0.75c-0.51,0.52-0.77,1.22-0.77,2.08v16.05c0,0.85,0.27,1.55,0.8,2.08c0.49,0.49,1.15,0.75,1.93,0.75
				h13.29v0.87c0,0.87,0.26,1.57,0.79,2.1c0.52,0.49,1.17,0.73,1.94,0.73C112.08,232.23,112.73,231.98,113.27,231.48z"/>
		</g>
	</g>
</g>
</svg>
