<?xml version="1.0" encoding="utf-8"?>
<!-- Generator: Adobe Illustrator 24.0.1, SVG Export Plug-In . SVG Version: 6.00 Build 0)  -->
<svg version="1.1" id="Layer_1" xmlns="http://www.w3.org/2000/svg" xmlns:xlink="http://www.w3.org/1999/xlink" x="0px" y="0px"
	 viewBox="0 0 377.01 377.01" style="enable-background:new 0 0 377.01 377.01;" xml:space="preserve">
<style type="text/css">
	.st0{fill:#FF7D00;}
	.st1{fill:#FFFFFF;}
	.st2{fill:#5C2D90;}
</style>
<rect class="st0" width="377.01" height="377.01"/>
<g>
	<path class="st1" d="M211.72,121.29h14.6v51.63c0,2.95-1.78,5.62-4.51,6.75c-0.9,0.37-1.85,0.56-2.79,0.56
		c-1.9,0-3.64-0.97-5.16-2.14l-48.7-35.2v37.37h-14.6v-51.63c0-2.95,1.78-5.67,4.51-6.8c2.73-1.13,5.53-0.17,7.96,1.58l48.7,35.26
		V121.29z M300.39,148.84c-1.69-1.69-3.65-3.01-5.84-3.94c-2.27-0.96-4.68-1.42-7.16-1.42h-39.01c-2.08,0-3.78-1.7-3.78-3.78
		c0-2.08,1.7-3.78,3.78-3.78h46.23c4.03,0,7.3-3.27,7.3-7.3s-3.27-7.3-7.3-7.3h-46.23c-2.48,0-4.89,0.49-7.16,1.45
		c-2.19,0.93-4.16,2.25-5.84,3.94c-1.69,1.69-3.01,3.65-3.94,5.84c-0.96,2.27-1.45,4.68-1.45,7.16s0.49,4.89,1.45,7.16
		c0.93,2.19,2.25,4.16,3.94,5.84c1.69,1.69,3.65,3.01,5.84,3.94c2.27,0.96,4.68,1.45,7.16,1.45h39.01v-0.02
		c2.08,0,3.77,1.69,3.77,3.77s-1.69,3.77-3.77,3.77h-50.09c-4.03,0-7.3,3.27-7.3,7.3s3.27,7.3,7.3,7.3h50.09
		c2.48,0,4.89-0.49,7.16-1.45c2.19-0.93,4.15-2.25,5.84-3.94c1.69-1.69,3.01-3.65,3.94-5.84c0.96-2.27,1.45-4.68,1.45-7.16
		s-0.49-4.89-1.45-7.16C303.4,152.49,302.07,150.53,300.39,148.84z M147.07,150.77c0,16.28-13.2,29.48-29.48,29.48H83.22h-6.61
		h-5.37v-29.48v-29.48h46.36C133.87,121.29,147.07,134.49,147.07,150.77z M132.4,150.77c0-3.96-1.54-7.67-4.34-10.47
		c-2.8-2.8-6.52-4.34-10.47-4.34H85.91v14.81v14.81h31.68c3.96,0,7.67-1.54,10.47-4.34C130.86,158.44,132.4,154.73,132.4,150.77z"/>
	<g>
		<g>
			<path class="st2" d="M332.89,255.72H44.12c-4.22,0-7.65-3.42-7.65-7.65v-43.63c0-4.22,3.42-7.65,7.65-7.65h288.78
				c4.22,0,7.65,3.42,7.65,7.65v43.63C340.54,252.3,337.12,255.72,332.89,255.72z"/>
		</g>
		<g>
			<path class="st1" d="M73.22,211.57H59.18c-1.09,0-1.96,0.37-2.67,1.13c-0.64,0.69-0.96,1.54-0.96,2.53
				c0,0.96,0.28,1.78,0.84,2.43c0.65,0.81,1.59,1.22,2.79,1.22h3.12v18.06c0,1.22,0.38,2.21,1.13,2.96
				c0.74,0.69,1.67,1.04,2.77,1.04c1.09,0,2.03-0.35,2.79-1.06c0.73-0.73,1.1-1.72,1.1-2.94v-18.06h3.12c1.2,0,2.14-0.41,2.77-1.2
				c0.58-0.68,0.86-1.48,0.86-2.45c0-0.99-0.32-1.84-0.96-2.53C75.19,211.95,74.3,211.57,73.22,211.57z"/>
			<path class="st1" d="M93.34,233.57h-6.02v-3.75h5.22c1.19,0,2.12-0.38,2.86-1.18c0.65-0.7,0.96-1.52,0.96-2.51
				c0-1-0.32-1.85-0.96-2.55c-0.69-0.74-1.68-1.14-2.86-1.14h-5.22v-3.52H93c1.16,0,2.12-0.41,2.78-1.18
				c0.65-0.7,0.96-1.52,0.96-2.51c0-0.96-0.31-1.82-0.93-2.55c-0.7-0.75-1.65-1.14-2.82-1.14h-9.46c-1.5,0-4.01,0.57-4.01,4.37
				v21.08c0,1.15,0.39,2.1,1.17,2.83c0.77,0.72,1.71,1.08,2.8,1.08h9.84c1.16,0,2.12-0.41,2.78-1.18c0.65-0.7,0.96-1.52,0.96-2.51
				c0-0.96-0.31-1.81-0.93-2.55C95.47,233.95,94.52,233.57,93.34,233.57z"/>
			<path class="st1" d="M123.36,234.75l-7.1-9.44l5.71-7.67c0.55-0.69,0.83-1.47,0.83-2.29c0-1.14-0.41-2.1-1.17-2.75
				c-0.74-0.68-1.67-1.03-2.77-1.03c-1.35,0-2.5,0.64-3.33,1.83l-3.89,5.45l-3.87-5.44c-0.83-1.21-1.98-1.84-3.34-1.84
				c-1.09,0-2.02,0.34-2.74,1c-0.79,0.68-1.2,1.61-1.2,2.77c0,0.83,0.28,1.59,0.81,2.27l5.73,7.69l-7.11,9.44
				c-0.26,0.36-0.42,0.72-0.54,1.05c-0.2,0.49-0.3,1-0.3,1.47c0,1.09,0.41,2.02,1.17,2.68c0.72,0.66,1.65,0.99,2.76,0.99
				c1.29,0,2.4-0.58,3.21-1.67l5.42-7.45l5.42,7.45c0.8,1.09,1.91,1.67,3.2,1.67c1.11,0,2.02-0.32,2.8-0.99
				c0.75-0.69,1.13-1.59,1.13-2.67c0-0.42-0.08-0.87-0.26-1.45C123.81,235.45,123.62,235.11,123.36,234.75z"/>
			<path class="st1" d="M147.81,211.57c-1.09,0-2.03,0.35-2.79,1.05c-0.73,0.72-1.1,1.7-1.1,2.91v6.98h-9.91v-6.98
				c0-1.21-0.38-2.19-1.13-2.94c-0.74-0.68-1.67-1.03-2.76-1.03s-2.03,0.35-2.79,1.05c-0.73,0.73-1.1,1.71-1.1,2.91v21.43
				c0,1.21,0.38,2.19,1.13,2.94c0.74,0.68,1.67,1.03,2.77,1.03s2.03-0.35,2.79-1.05c0.73-0.73,1.1-1.71,1.1-2.91v-7.2h9.91v7.2
				c0,1.21,0.38,2.19,1.13,2.94c0.74,0.68,1.67,1.03,2.76,1.03c1.09,0,2.03-0.35,2.79-1.05c0.73-0.72,1.11-1.7,1.11-2.91v-21.43
				c0-1.21-0.38-2.19-1.13-2.94C149.84,211.92,148.91,211.57,147.81,211.57z"/>
			<path class="st1" d="M168.54,211.57c-4.12,0-7.56,1.43-10.22,4.26c-2.61,2.74-3.94,6.25-3.94,10.42c0,4.13,1.32,7.64,3.93,10.42
				c2.66,2.83,6.1,4.27,10.23,4.27c4.15,0,7.6-1.44,10.27-4.27c2.58-2.79,3.89-6.3,3.89-10.41c0-4.12-1.3-7.5-3.97-10.34
				C176.06,213.03,172.63,211.57,168.54,211.57z M164,220.91c1.13-1.48,2.62-2.2,4.55-2.2c1.93,0,3.42,0.72,4.55,2.19
				c1.06,1.39,1.59,3.19,1.59,5.35c0,2.21-0.52,4.02-1.55,5.38c-1.1,1.45-2.6,2.16-4.59,2.16c-1.98,0-3.48-0.71-4.59-2.15
				c-1.03-1.36-1.55-3.17-1.55-5.38C162.41,224.1,162.94,222.3,164,220.91z"/>
			<path class="st1" d="M206.98,211.57h-17.7c-1.1,0-2.06,0.37-2.75,1.06c-0.77,0.77-1.14,1.73-1.14,2.94v21.37
				c0,1.22,0.38,2.21,1.13,2.96c0.74,0.69,1.67,1.04,2.76,1.04c1.09,0,2.03-0.35,2.79-1.06c0.73-0.73,1.11-1.72,1.11-2.94v-18.29
				h9.91v18.29c0,1.22,0.38,2.21,1.13,2.96c0.74,0.69,1.67,1.04,2.76,1.04s2.03-0.35,2.79-1.06c0.73-0.73,1.1-1.72,1.1-2.94v-21.37
				c0-1.21-0.37-2.17-1.14-2.94C209.04,211.94,208.08,211.57,206.98,211.57z"/>
			<path class="st1" d="M227.71,211.57c-4.13,0-7.56,1.43-10.22,4.26c-2.61,2.75-3.94,6.25-3.94,10.42c0,4.13,1.32,7.64,3.93,10.42
				c2.66,2.83,6.1,4.27,10.23,4.27c4.15,0,7.6-1.44,10.27-4.27c2.58-2.79,3.89-6.3,3.89-10.41c0-4.12-1.3-7.5-3.97-10.34
				C235.23,213.03,231.8,211.57,227.71,211.57z M223.16,220.91c1.13-1.48,2.62-2.19,4.55-2.19c1.93,0,3.42,0.72,4.55,2.19
				c1.06,1.39,1.59,3.19,1.59,5.35c0,2.21-0.52,4.02-1.55,5.38c-1.1,1.45-2.6,2.16-4.59,2.16s-3.48-0.71-4.59-2.15
				c-1.03-1.36-1.55-3.17-1.55-5.38C221.57,224.1,222.11,222.3,223.16,220.91z"/>
			<path class="st1" d="M266.14,211.57c-1.29,0-2.37,0.55-3.23,1.65l-10.58,13.66v-11.34c0-1.21-0.38-2.19-1.13-2.94
				c-0.74-0.68-1.67-1.03-2.76-1.03c-1.09,0-2.03,0.35-2.79,1.05c-0.73,0.72-1.1,1.7-1.1,2.91v21.43c0,1.21,0.38,2.19,1.13,2.94
				c0.74,0.68,1.67,1.03,2.76,1.03c1.29,0,2.37-0.55,3.22-1.64l10.58-13.51v11.18c0,1.21,0.38,2.19,1.13,2.94
				c0.74,0.68,1.67,1.03,2.77,1.03c1.09,0,2.03-0.35,2.79-1.05c0.73-0.72,1.1-1.7,1.1-2.91v-21.43c0-1.21-0.38-2.19-1.13-2.94
				C268.16,211.92,267.23,211.57,266.14,211.57z"/>
			<path class="st1" d="M294.25,211.57c-1.09,0-2.03,0.35-2.79,1.05c-0.73,0.72-1.1,1.7-1.1,2.91v6.98h-9.91v-6.98
				c0-1.21-0.38-2.19-1.13-2.94c-0.74-0.68-1.67-1.03-2.76-1.03c-1.09,0-2.03,0.35-2.79,1.05c-0.73,0.73-1.1,1.71-1.1,2.91v21.43
				c0,1.21,0.38,2.19,1.13,2.94c0.74,0.68,1.67,1.03,2.77,1.03c1.09,0,2.03-0.35,2.79-1.05c0.73-0.73,1.1-1.71,1.1-2.91v-7.2h9.91
				v7.2c0,1.21,0.38,2.19,1.13,2.94c0.74,0.68,1.67,1.03,2.76,1.03c1.09,0,2.03-0.35,2.79-1.05c0.73-0.72,1.1-1.7,1.1-2.91v-21.43
				c0-1.21-0.38-2.19-1.13-2.94C296.28,211.92,295.34,211.57,294.25,211.57z"/>
			<path class="st1" d="M320.49,212.7L320.49,212.7c-0.7-0.75-1.59-1.13-2.67-1.13h-14.04c-1.07,0-1.97,0.38-2.67,1.13
				c-0.64,0.69-0.96,1.54-0.96,2.53c0,0.96,0.28,1.78,0.84,2.43c0.65,0.81,1.59,1.22,2.79,1.22h3.12v18.06
				c0,1.22,0.38,2.21,1.13,2.96c0.74,0.69,1.67,1.04,2.76,1.04c1.09,0,2.03-0.35,2.79-1.06c0.73-0.73,1.1-1.72,1.1-2.94v-18.06h3.12
				c1.2,0,2.14-0.41,2.78-1.2c0.57-0.68,0.85-1.48,0.85-2.45C321.45,214.24,321.13,213.39,320.49,212.7z"/>
		</g>
	</g>
</g>
</svg>
