<?xml version="1.0" encoding="utf-8"?>
<!-- Generator: Adobe Illustrator 24.0.0, SVG Export Plug-In . SVG Version: 6.00 Build 0)  -->
<svg version="1.1" id="Слой_1" xmlns="http://www.w3.org/2000/svg" xmlns:xlink="http://www.w3.org/1999/xlink" x="0px" y="0px"
	 viewBox="0 0 522.64 522.08" style="enable-background:new 0 0 522.64 522.08;" xml:space="preserve">
<style type="text/css">
	.st0{fill:#FFFFFF;}
</style>
<path class="st0" d="M522.64,180.31c0,54.07,0,108.15,0,162.22c-0.41,7.52-0.98,15.03-1.19,22.55c-0.43,15-1.86,29.87-5.21,44.51
	c-5.89,25.74-17.03,48.68-35.58,67.87c-24.29,25.14-54.6,37.53-88.54,41.79c-14.52,1.82-29.25,1.91-43.88,2.81
	c-2.11,0.13-4.22,0.38-6.32,0.57c-53.64,0-107.29,0-160.93,0c-7.95-0.41-15.9-0.97-23.86-1.21c-15.74-0.49-31.33-2.12-46.65-5.83
	c-32.53-7.88-59.47-24.5-79.58-51.52c-17.23-23.14-25.37-49.72-27.94-78.03c-1.58-17.46-2.55-35.04-2.56-52.56
	c-0.01-58.74-1.36-117.49,1.07-176.22c0.65-15.73,2.13-31.33,5.82-46.66c7.83-32.56,24.43-59.5,51.4-79.65
	c23.2-17.34,49.89-25.47,78.31-28.06c16.93-1.54,33.97-2.54,50.96-2.54c59.05-0.01,118.12-1.38,177.16,1.04
	c14.99,0.61,29.87,1.87,44.51,5.22c25.62,5.87,48.5,16.94,67.65,35.37c25.27,24.33,37.75,54.72,42.01,88.79
	c1.83,14.63,1.91,29.47,2.81,44.21C522.19,176.76,522.45,178.54,522.64,180.31z M46.92,261.21c-0.22,0-0.45,0-0.67,0
	c0.44,31.92,0.69,63.85,1.38,95.76c0.33,15.06,1.37,30.1,4.98,44.86c5.97,24.41,18.8,44,40.43,57.2
	c15.53,9.48,32.89,13.54,50.79,14.92c15.26,1.18,30.59,1.84,45.89,1.97c38.31,0.32,76.61,0.36,114.92,0.23
	c28.06-0.1,56.17,0.29,84.09-3.38c14.84-1.95,29.07-6.18,41.84-14.17c25.74-16.11,38.45-40.49,42.06-69.77
	c2.05-16.63,2.75-33.47,3.22-50.24c0.61-21.59,0.56-43.21,0.46-64.81c-0.18-35.76-0.45-71.51-1.04-107.26
	c-0.25-15.28-1.24-30.55-4.99-45.49c-8.32-33.17-28.22-55.69-60.99-66.35c-16.75-5.45-34.14-6.6-51.54-7.08
	c-23.08-0.63-46.17-1.03-69.26-0.98c-40.75,0.08-81.5,0.41-122.25,0.97c-14.21,0.19-28.42,1.23-42.39,4.32
	c-22.69,5.02-41.77,15.8-55.75,34.72c-11.29,15.28-16.59,32.92-18.47,51.48c-1.59,15.63-2.34,31.4-2.6,47.12
	C46.61,210.54,46.92,235.88,46.92,261.21z"/>
<path class="st0" d="M395.56,261.71c-0.01,73.9-60.23,133.92-134.4,133.83c-73.96-0.09-134.62-60.43-133.81-135.68
	c0.78-72.98,60.3-132.82,135.03-132.6C335.71,127.48,395.57,187.78,395.56,261.71z M348.93,261.55
	c0.28-47.99-38.71-86.8-85.76-87.66c-49.27-0.9-88.58,38.83-89.25,86.13c-0.7,49.23,39.11,88.42,86.45,88.95
	C309.28,349.53,349.15,309.66,348.93,261.55z"/>
<path class="st0" d="M400.9,90.88c17.42,0.02,31.11,13.91,31.08,31.52c-0.04,16.95-14.22,30.98-31.19,30.85
	c-17.27-0.13-31.23-14.14-31.17-31.29C369.67,104.71,383.62,90.86,400.9,90.88z"/>
</svg>
