<?xml version="1.0" encoding="UTF-8"?>
<!DOCTYPE svg PUBLIC "-//W3C//DTD SVG 1.1//EN" "http://www.w3.org/Graphics/SVG/1.1/DTD/svg11.dtd">
<!-- Creator: CorelDRAW 2017 -->
<svg xmlns="http://www.w3.org/2000/svg" xml:space="preserve" width="149.657mm" height="23.9804mm" version="1.1" style="shape-rendering:geometricPrecision; text-rendering:geometricPrecision; image-rendering:optimizeQuality; fill-rule:evenodd; clip-rule:evenodd"
viewBox="0 0 2737 439"
 xmlns:xlink="http://www.w3.org/1999/xlink">
 <defs>
  <style type="text/css">
   <![CDATA[
    .fil1 {fill:#FEFEFE}
    .fil0 {fill:#22201E}
    .fil3 {fill:#211F1D}
    .fil2 {fill:black}
    .fil4 {fill:#FEFEFE;fill-rule:nonzero}
   ]]>
  </style>
 </defs>
 <g id="Слой_x0020_1">
  <metadata id="CorelCorpID_0Corel-Layer"/>
  <path class="fil0" d="M0 70l3 75c2,64 -7,56 0,135 4,51 -7,44 -1,88 4,27 -6,29 13,46 10,9 16,7 19,21 38,0 83,7 125,2 36,-5 85,-2 126,-2 22,0 36,-3 60,-3 13,0 27,4 45,3 15,-1 5,0 13,-4l3 -2c8,-4 8,-2 17,-11 6,-7 9,-10 13,-20 8,-18 1,-36 1,-59 0,-35 5,-14 0,-55 -3,-29 4,-149 4,-159 0,-4 -3,-11 -5,-17l1 -63c0,-12 2,4 -6,-11 -8,-15 -16,-28 -49,-29l-93 -5c-62,0 -116,3 -178,2 -16,0 -28,2 -40,5 -13,3 -29,2 -40,5 -24,7 -32,28 -32,58z"/>
  <g id="_1694596974224">
   <path class="fil1" d="M230 315c7,6 15,9 24,14 15,8 57,41 78,44 -3,-41 -27,-84 -26,-125l70 -57c10,-10 18,-10 21,-23 -3,-2 -4,-5 -11,-4 -5,1 -2,1 -8,6 -5,-6 1,-7 -20,-9 -104,-8 -74,9 -101,-39l-4 -13c-2,-6 -6,-15 -9,-22 -2,-4 -3,-6 -5,-10 -1,-2 -2,-3 -3,-4l-5 -6 0 248z"/>
   <path class="fil1" d="M175 156c-12,-3 -122,6 -130,11 3,9 1,5 9,11 12,9 78,65 85,74 -7,32 -26,90 -26,120 14,-3 56,-32 76,-42 5,-3 8,-4 13,-7 0,0 6,-4 6,-4 10,-10 5,-43 5,-56l0 -194c-11,8 -17,27 -22,41 -6,16 -16,25 -15,47z"/>
  </g>
  <path class="fil2" d="M1996 205c9,1 2,5 -3,6 -2,-2 -3,-4 3,-6z"/>
  <path class="fil2" d="M1816 293c1,0 3,0 4,1 -1,2 -8,1 -4,-1z"/>
  <path class="fil2" d="M1732 309c5,2 1,2 -2,5 1,0 -5,-4 2,-5z"/>
  <path class="fil2" d="M1426 295c-39,4 26,-14 0,0z"/>
  <path class="fil2" d="M1321 312c7,2 0,5 0,8 -2,-2 -9,-6 0,-8z"/>
  <path class="fil2" d="M1193 293c15,-2 21,6 7,8 -11,-1 -13,-4 -7,-8z"/>
  <path class="fil2" d="M1364 37c6,1 2,4 1,6 -3,-1 -8,-5 -1,-6z"/>
  <path class="fil2" d="M1239 20c-1,1 -4,1 -6,2 -12,-2 4,-6 6,-2z"/>
  <path class="fil2" d="M742 221c9,1 8,5 11,8 7,7 21,13 15,21 -14,-2 -16,-9 -20,-14 -4,-5 -21,-12 -7,-15z"/>
  <path class="fil3" d="M500 364c4,0 6,1 4,2 -1,0 -3,0 -5,0 -1,-1 0,-1 1,-2z"/>
  <path class="fil2" d="M729 21c2,0 4,1 5,1 0,2 1,4 2,6 -1,-2 -12,-4 -7,-7z"/>
  <path class="fil3" d="M517 75c8,1 9,2 5,4 -8,1 -13,-3 -5,-4z"/>
  <path class="fil2" d="M2633 234c-8,1 -2,4 2,5 2,-2 2,-4 -2,-5z"/>
  <path class="fil2" d="M2459 20c3,-1 9,-1 8,2 -3,1 -9,1 -8,-2z"/>
  <path class="fil2" d="M2395 12c16,-1 16,4 26,5 32,25 -11,14 -29,-1 -2,-1 0,-3 2,-4z"/>
  <path class="fil2" d="M2398 130c-123,19 88,-32 0,0z"/>
  <path class="fil2" d="M2113 45c10,0 13,3 19,6 14,5 34,9 37,17 -15,0 -25,-6 -34,-10 -9,-4 -33,-8 -23,-13z"/>
  <path class="fil2" d="M1953 124c3,0 5,0 5,1 -1,0 -2,0 -4,0 -1,0 -1,-1 -1,-2z"/>
  <path class="fil2" d="M1948 134c-1,-1 4,-2 6,-1 1,1 -4,2 -6,1z"/>
  <path class="fil2" d="M1879 9c14,0 17,6 24,10 12,6 29,11 31,20 -20,0 -31,-11 -42,-18 -7,-4 -25,-8 -13,-12z"/>
  <path class="fil2" d="M1837 55c0,0 0,-1 0,-1 3,0 2,-1 5,0 0,0 0,1 0,1 -2,1 -1,0 -5,0z"/>
  <path class="fil3" d="M2737 8c0,-1 0,-1 -1,-2l1 0 0 2z"/>
  <path class="fil0" d="M508 6l266 0c-9,2 -11,12 -8,15 2,2 7,3 11,5 19,-3 19,-16 4,-19l1934 0c4,5 10,9 19,11 1,-1 2,-2 2,-4l0 424 -1054 0c8,-5 30,-18 13,-21 -16,-3 -32,8 -38,14 -2,2 -3,4 -4,7l-199 0c0,-3 -2,-6 -9,-7 -11,-2 -24,2 -32,7l-511 0c-5,-1 -9,0 -12,0l-384 0 0 -305c2,1 5,1 8,1 6,-3 2,-8 -8,-9l0 -119z"/>
  <path class="fil4" d="M642 68l15 0 1 4 -1 3 0 39 -5 1c-6,0 -13,1 -20,3l-15 7c-4,4 -7,8 -11,12l-5 18 0 23 5 16 12 11 16 7 20 3c2,5 3,11 3,18l0 23 -11 4 -3 -4c-5,2 -10,2 -16,3l-19 -5 -15 -7 -14 -10 -11 -12 -8 -15 -4 -19 4 -8c-2,-2 -4,-3 -7,-4l0 -18 1 -4 -1 -11 1 -4 4 -19 8 -15 9 -12 13 -11 15 -8 18 -5 19 -3zm1342 41l0 0 0 13c2,4 5,6 9,7 0,4 -1,9 -3,12l-7 4 1 19c3,1 4,3 4,5l-5 -3 0 67 9 3 1 6c5,-1 10,3 15,11l7 -12 1 15 -1 1 7 -1 -3 -8 8 7 1 -127 -4 -3 4 -8 0 -31c-3,0 -5,-2 -8,-7 -2,-4 -5,-10 -5,-10l0 0 -20 0 0 0 -1 0 -1 0 -19 0 -19 0 0 43 23 -4c2,1 5,1 7,2zm-1366 -18c0,2 1,3 3,4 0,-2 -1,-3 -3,-4zm-38 50l-5 7c2,3 5,7 7,11 0,7 3,14 7,22l-1 -11 3 -11c-2,-6 -5,-12 -10,-18zm32 89l-3 8 4 3 3 -8 -4 -3zm12 5c0,2 1,4 3,5 0,-2 -1,-4 -3,-5zm135 -168l23 0 4 1 1 3 -1 4c3,-2 6,-4 11,-5l19 8 3 3 -3 7 7 -4 9 7c-1,2 -3,5 -5,7l-13 13c-4,4 -9,8 -15,12 -4,-3 -8,-7 -12,-12 -1,-3 -3,-6 -5,-8l-1 11 -24 -1 -3 1c-6,2 -11,5 -16,9l-12 15c-2,5 -4,10 -8,13 -3,-2 -7,-2 -11,-3 1,2 2,4 4,5 5,3 8,9 9,16 1,7 4,14 7,21 -1,5 -4,9 -8,13l-13 15 -9 7 -5 -7 -9 -19 -5 -21 -1 -27 9 -7 -7 -7 9 -1 3 3c2,2 5,4 8,5l1 -5 -4 -1c-5,-3 -10,-7 -13,-13l8 -19 13 -15 15 -12 43 -12zm77 31c4,4 7,9 11,13l8 17 4 20 1 23 -8 11 3 13 -7 17 -23 26 -33 15c-6,0 -11,-3 -15,-8l-11 7c-6,2 -12,3 -19,3l-20 -4c-5,-3 -10,-6 -15,-11l12 -12c2,-1 4,-3 5,-5l-7 0 -1 1 -13 11 -5 0 8 -12 12 -12c3,-4 7,-7 12,-9 5,3 10,6 16,8l23 1 17 -7 13 -11c2,-5 5,-11 7,-17 1,-6 2,-13 3,-21l-5 -19 -4 -5 31 -32zm-15 35c0,2 1,3 3,4l-3 -4zm7 37c0,1 1,2 3,3 0,-1 -1,-2 -3,-3zm-9 12c0,1 1,2 3,3 0,-1 -1,-2 -3,-3zm-112 4l-1 4 4 3 1 -5 -4 -1zm117 24c0,1 1,2 3,3 0,-1 -1,-2 -3,-3zm7 0c0,1 1,2 3,3 0,-1 -1,-2 -3,-3zm-75 24c0,1 1,2 3,3 0,-1 -1,-2 -3,-3zm15 19l8 0 -9 3 1 -3zm213 -25c0,2 1,4 3,5 0,-2 -1,-4 -3,-5zm-48 -117l23 -4c7,2 14,3 23,4l15 -1c-1,-3 -2,-7 -1,-11l3 -31c-8,0 -16,0 -23,0l-38 0 0 43zm-45 80c0,1 1,2 3,3 0,-1 -1,-2 -3,-3zm5 -4c0,2 1,4 3,5 0,-2 -1,-4 -3,-5zm-8 0c0,1 1,2 3,3 0,-1 -1,-2 -3,-3zm1 -32c0,1 1,2 3,3 0,-1 -1,-2 -3,-3zm9 -19c-2,2 -4,4 -5,7 1,1 3,2 5,3l4 -7 -4 -3zm-13 -9c0,1 1,2 3,3 0,-1 -1,-2 -3,-3zm-3 -59l37 0c3,3 5,8 5,15l0 112c0,4 -1,9 -3,13 -3,-3 -6,-6 -9,-9 -2,-2 -6,-4 -9,-4 -3,2 -7,3 -12,4l3 4c3,2 6,6 9,9 2,4 5,7 9,9l9 -7 3 17 0 19c-4,3 -8,4 -13,5l-19 0c-5,0 -9,-1 -13,-4l0 -168 3 -16zm177 0l31 0c8,0 12,4 13,12l0 172c0,2 -1,3 -3,4l-9 -3c-5,1 -10,2 -16,3l-17 -1c1,-3 1,-7 1,-11l0 -171 -1 -1 1 -4zm56 0l23 3c6,2 12,5 19,8 4,4 9,8 13,13 3,6 5,13 7,20l1 5 -1 15 -4 1 4 7 -4 12c-3,5 -6,11 -11,16l-16 11 -23 5 -9 -1c1,-3 3,-7 5,-11 -1,-3 -2,-7 -4,-11l0 7 -1 -4 0 -21 4 -3c6,-1 11,-5 15,-12 -1,-7 -4,-12 -9,-16l-9 -3 0 -37 1 -4zm7 9l-1 9 5 -4c-1,-2 -2,-4 -4,-5zm-52 11c-1,3 -2,6 -3,11 2,-3 2,-7 3,-11zm81 9l-1 5 7 1 1 -1c-1,-2 -4,-4 -7,-5zm12 12c1,3 3,6 5,9 -1,-3 -3,-6 -5,-9zm-88 4l-3 11c0,1 1,3 3,4l3 -11c0,-2 -1,-3 -3,-4zm77 52c0,1 1,2 3,3 0,-1 -1,-2 -3,-3zm-56 12l-3 8c-4,0 -8,-2 -12,-4 -3,0 -5,1 -8,3l7 0c0,2 -2,4 -4,5l16 3 7 -1c0,-4 -1,-9 -3,-13zm-20 28c0,1 1,2 3,3 0,-1 -1,-2 -3,-3zm0 36c0,4 2,7 4,11 0,-4 -2,-7 -4,-11zm202 -174l23 0 4 1 1 3 -1 4c3,-2 6,-4 11,-5l19 8 3 3 -3 7 7 -4 9 7c-1,2 -3,5 -5,7l-13 13c-4,4 -9,8 -15,12 -4,-3 -8,-7 -12,-12 -1,-3 -3,-6 -5,-8l-1 11 -24 -1 -3 1c-6,2 -11,5 -16,9l-12 15c-2,5 -4,10 -8,13 -3,-2 -7,-2 -11,-3 1,2 2,4 4,5 5,3 8,9 9,16 1,7 4,14 7,21 -1,5 -4,9 -8,13l-13 15 -9 7 -5 -7 -9 -19 -5 -21 -1 -27 9 -7 -7 -7 9 -1 3 3c2,2 5,4 8,5l1 -5 -4 -1c-5,-3 -10,-7 -13,-13l8 -19 13 -15 15 -12 43 -12zm77 31c4,4 7,9 11,13l8 17 4 20 1 23 -8 11 3 13 -7 17 -23 26 -33 15c-6,0 -11,-3 -15,-8l-11 7c-6,2 -12,3 -19,3l-20 -4c-5,-3 -10,-6 -15,-11l12 -12c2,-1 4,-3 5,-5l-7 0 -1 1 -13 11 -5 0 8 -12 12 -12c3,-4 7,-7 12,-9 5,3 10,6 16,8l23 1 17 -7 13 -11c2,-5 5,-11 7,-17 1,-6 2,-13 3,-21l-5 -19 -4 -5 31 -32zm-15 35c0,2 1,3 3,4l-3 -4zm7 37c0,1 1,2 3,3 0,-1 -1,-2 -3,-3zm-9 12c0,1 1,2 3,3 0,-1 -1,-2 -3,-3zm-112 4l-1 4 4 3 1 -5 -4 -1zm117 24c0,1 1,2 3,3 0,-1 -1,-2 -3,-3zm7 0c0,1 1,2 3,3 0,-1 -1,-2 -3,-3zm-75 24c0,1 1,2 3,3 0,-1 -1,-2 -3,-3zm15 19l8 0 -9 3 1 -3zm147 -185l51 0 3 7 0 5c5,-2 8,-5 9,-11 7,0 13,3 18,7l5 1 0 25 -15 8c-3,1 -7,2 -11,3 -2,-4 -4,-9 -5,-14l-1 -12c-3,1 -6,3 -8,5l-3 9 9 8c-6,2 -13,4 -21,4l-76 0 0 -17 8 -9 -3 -8 -7 -7c5,-1 10,-2 16,-3l24 0 5 -1zm62 15l-3 5c1,3 4,6 7,9 0,-5 -1,-10 -4,-14zm-46 4l-1 4 1 3c2,-2 4,-4 5,-7l-5 0zm-17 37c4,0 7,1 11,4l8 -4 21 0c1,4 3,8 5,12l0 120 -28 0 4 -7 0 -15c-2,2 -5,3 -8,4 -1,-4 -2,-9 -4,-13 -3,0 -5,2 -6,4l1 -16 1 -5c2,4 4,8 7,12l-1 -5 3 -15 -5 -8c1,-8 3,-17 5,-26 -1,-4 -3,-8 -7,-12l-3 9 -4 -8 0 -32zm41 42l-4 11c1,3 2,7 3,11l3 -17 0 -4 -1 0zm-7 36c0,1 1,2 3,3 0,-1 -1,-2 -3,-3zm-34 38c5,4 8,9 8,16l-8 0 0 -16zm257 -173l-21 4 -3 -4 -21 0 -3 1 -12 19c-4,5 -6,11 -7,19l4 9c-3,3 -4,6 -5,11l0 9 -8 -12c-4,3 -8,7 -12,12 -4,5 -7,12 -11,19l-5 5 -1 -4 1 -12 0 -24 -1 -5 -7 -12 7 -4 1 -26c-8,-3 -16,-5 -25,-5l-20 1 0 188 1 -5 17 5 24 0 25 -42 -1 -16 4 -3 1 3 13 -16 12 -20c3,-6 6,-13 7,-20 6,-5 10,-10 15,-17l21 -39c4,-5 7,-12 9,-19zm-135 19l5 13 -7 1 -4 -9c1,-2 3,-3 5,-5zm83 36l1 7 -8 0 7 -7zm-79 16c-1,3 -2,6 -4,9 0,-4 2,-7 4,-9zm72 4c0,1 -1,2 -3,3 0,-1 1,-2 3,-3zm7 13l-1 5 -1 -5 3 0zm-83 19c0,1 -1,2 -3,3 0,-1 1,-2 3,-3zm43 8c0,1 -1,2 -3,3 0,-1 1,-2 3,-3zm-25 4l3 7 -3 4 -1 -3c-2,-2 -4,-4 -5,-7l7 -1zm-9 0c0,1 -1,2 -3,3 0,-1 1,-2 3,-3zm11 54c0,3 -2,6 -5,8 1,-3 3,-6 5,-8zm115 3c0,1 -1,2 -3,3 0,-1 1,-2 3,-3zm3 -149l-13 20 -11 23 11 3c-2,4 -5,7 -9,9l-7 -4 -8 13c-4,7 -6,15 -7,24l7 -9 13 6 13 -9 3 1c5,-5 7,-12 8,-20l0 -28 -1 -4 1 -26zm-45 110l0 50 4 3 12 0 4 -1 9 1 5 0 12 -1 -1 -19 0 -59 -7 0 -39 27zm72 -136l32 0 12 1 0 187 -41 0 -4 -1 1 -8 0 -24 3 -5c2,-5 5,-9 8,-13 -1,-2 -2,-3 -4,-4l-7 9 0 -137 -1 -1 1 -4zm56 0l19 1 15 4c4,2 8,5 12,7l8 11 7 13 3 16 -1 17 -4 15 -7 12 8 11 4 33 -4 16 -7 12 -9 9 -12 7 -16 4c-5,0 -11,-1 -16,-3l0 -37 13 -7c3,-3 5,-7 7,-12l-7 -11c-4,-2 -9,-4 -13,-7l0 -37 13 -5c2,-4 4,-9 5,-13 -2,-4 -4,-8 -7,-12 -4,-1 -8,-4 -12,-8l1 -36zm-25 16l-1 9c2,-2 4,-4 5,-7l-4 -3zm7 28c0,2 1,4 3,5 0,-2 -1,-4 -3,-5zm72 4c-2,2 -4,3 -7,4 1,1 2,2 4,3l5 -1c0,-2 -1,-4 -3,-5zm-97 4c0,1 1,2 3,3 0,-1 -1,-2 -3,-3zm9 24c0,1 1,2 3,3 0,-1 -1,-2 -3,-3zm-12 16l-1 4 4 3 1 -5 -4 -1zm57 13c0,2 1,3 3,4 0,-2 -1,-3 -3,-4zm-44 7l-1 5 4 1 1 -4 -4 -3zm7 40c0,1 1,2 3,3 0,-1 -1,-2 -3,-3zm47 8l-1 15c0,2 1,3 3,4l3 -16 -4 -3zm-73 1c0,3 2,6 4,9 0,-3 -2,-6 -4,-9zm63 3l-4 9c2,3 5,6 8,9l1 -19 -5 0zm110 -164l41 0c2,5 3,11 4,17l0 104 -3 17c-1,5 -3,10 -5,16l-8 13 -11 9 -15 7 -16 4c-3,-3 -7,-5 -11,-8 -1,-5 -5,-8 -11,-9l-4 -9 0 -13 -1 0 4 -3 19 -1c4,-2 8,-5 12,-9 1,3 1,7 1,11 1,-1 3,-2 4,-4l7 -15c2,-2 4,-4 7,-5l-1 5 7 7 1 -5 -1 -1c0,-4 -2,-8 -5,-12l-15 -3 -1 -9 0 -83 1 -20zm8 15l0 9 3 -7c0,-1 -1,-2 -3,-3zm-8 4l0 3 3 -1 -3 -1zm32 12l3 17 4 1 1 -1c-2,-6 -5,-11 -8,-17zm-25 44l-1 5 4 -1c0,-2 -1,-3 -3,-4zm31 49c-1,5 -5,8 -11,11 1,3 3,7 5,9 3,-2 6,-5 8,-9l3 -7 -5 -4zm-23 27c0,1 1,2 3,3 0,-1 -1,-2 -3,-3zm-52 27l8 0 -1 11 -8 -1 1 -9zm128 -59c0,1 1,2 3,3 0,-1 -1,-2 -3,-3zm5 4c0,1 1,2 3,3 0,-1 -1,-2 -3,-3zm11 13l0 9 4 -7 -4 -3zm-19 16c0,2 2,4 4,5 0,-2 -2,-4 -4,-5zm32 7c0,1 1,2 3,3 0,-1 -1,-2 -3,-3zm40 -159l19 1 5 4c0,-1 1,-2 3,-3l15 -3c2,4 3,8 3,13l1 17 -1 17 1 16c-2,3 -3,6 -4,11l4 16 0 90c-2,4 -6,7 -12,7l-17 0c-5,0 -11,-1 -17,-3 1,-5 2,-10 4,-15 4,-1 8,-3 11,-7 2,-4 4,-8 5,-12l-5 -3 -9 5c-1,3 -2,5 -4,7l0 -156 -1 0 1 -4zm58 0l24 0 5 1 -3 15 -3 5 7 9c2,4 5,7 9,9 -5,2 -11,3 -17,4l-24 0 -1 -41c1,0 2,-1 3,-3zm37 0l29 0 1 4 -1 3 0 20 -3 16 -19 1c0,-5 -1,-9 -4,-15l-5 -13 1 -16zm-21 4c0,2 1,4 3,5 0,-2 -1,-4 -3,-5zm-57 48c0,1 1,2 3,3 0,-1 -1,-2 -3,-3zm-4 16c0,1 1,2 3,3 0,-1 -1,-2 -3,-3zm42 5l26 0 11 1 3 -1 18 0 0 40 1 0 -1 1 -20 3 -29 0 -9 -1 0 -42zm-21 16c1,2 2,4 4,5 -1,-2 -2,-4 -4,-5zm-29 3c0,1 1,2 3,3 0,-1 -1,-2 -3,-3zm82 13c-6,1 -11,5 -15,11 7,-1 11,-5 15,-11zm-82 3c1,2 2,5 4,7 -1,-2 -2,-5 -4,-7zm17 0l-1 4 4 3 1 -5 -4 -1zm33 37l20 0c1,3 2,6 4,9l0 -7 17 -3 -5 12c1,2 3,4 5,5l1 -4 -1 -1c4,-3 8,-5 13,-7 1,-1 1,-3 1,-5l13 1 0 37c-4,2 -9,3 -13,4l-34 0 0 -5c-2,0 -4,1 -5,3l-12 3c-2,0 -3,-1 -4,-3l0 -40zm-37 28l-4 7 9 3c-1,-3 -3,-7 -5,-9zm135 -40l0 9 3 -7c0,-1 -1,-2 -3,-3zm106 -1c0,1 1,2 3,3 0,-1 -1,-2 -3,-3zm31 -4c0,5 1,9 4,13l3 -12 -7 -1zm-7 -11l0 9 4 -7 -4 -3zm-113 -5c1,3 3,5 5,7 -1,-3 -3,-5 -5,-7zm33 -5c6,2 10,5 13,12l-13 -1 0 -11zm0 -32l24 0 5 1 -1 11 3 4c2,0 3,-1 4,-3l-1 -13 7 0 0 39 -1 5 -19 0 -1 -4 9 0c-1,-4 -2,-9 -4,-13l-17 -5 -1 4c-3,-7 -5,-16 -5,-25zm-44 1c5,5 11,8 19,9 -5,-4 -11,-8 -19,-9zm118 -4c0,1 1,2 3,3 0,-1 -1,-2 -3,-3zm-128 0c0,1 1,2 3,3 0,-1 -1,-2 -3,-3zm21 -7c0,2 1,3 3,4 0,-2 -1,-3 -3,-4zm113 -25c-2,5 -3,11 -4,17l1 9 5 -3 5 -1 1 -8 -1 -3c-2,-4 -5,-8 -8,-12zm-29 -39l44 0 1 4 -1 3 0 127c0,4 -1,14 -4,30l-7 -3 -5 9c3,4 4,8 5,13 -3,4 -7,5 -12,5l-17 0 -5 -12 0 -68c0,-5 1,-10 3,-15l3 -9 0 -4 -1 0c-2,-4 -3,-9 -4,-13l0 -51 1 -16zm-108 0l45 1 0 73 -1 13 1 43 -1 11 1 3 0 37 -1 5 -29 1 -16 -1c1,-3 1,-7 1,-11l0 -171 -1 -1 1 -4zm326 -1l-21 4 -3 -4 -21 0 -3 1 -12 19c-4,5 -6,11 -7,19l4 9c-3,3 -4,6 -5,11l0 9 -8 -12c-4,3 -8,7 -12,12 -4,5 -7,12 -11,19l-5 5 -1 -4 1 -12 0 -24 -1 -5 -7 -12 7 -4 1 -26c-8,-3 -16,-5 -25,-5l-20 1 0 188 1 -5 17 5 24 0 25 -42 -1 -16 4 -3 1 3 13 -16 12 -20c3,-6 6,-13 7,-20 6,-5 10,-10 15,-17l21 -39c4,-5 7,-12 9,-19zm-135 19l5 13 -7 1 -4 -9c1,-2 3,-3 5,-5zm83 36l1 7 -8 0 7 -7zm-79 16c-1,3 -2,6 -4,9 0,-4 2,-7 4,-9zm72 4c0,1 -1,2 -3,3 0,-1 1,-2 3,-3zm7 13l-1 5 -1 -5 3 0zm-83 19c0,1 -1,2 -3,3 0,-1 1,-2 3,-3zm43 8c0,1 -1,2 -3,3 0,-1 1,-2 3,-3zm-25 4l3 7 -3 4 -1 -3c-2,-2 -4,-4 -5,-7l7 -1zm-9 0c0,1 -1,2 -3,3 0,-1 1,-2 3,-3zm11 54c0,3 -2,6 -5,8 1,-3 3,-6 5,-8zm115 3c0,1 -1,2 -3,3 0,-1 1,-2 3,-3zm3 -149l-13 20 -11 23 11 3c-2,4 -5,7 -9,9l-7 -4 -8 13c-4,7 -6,15 -7,24l7 -9 13 6 13 -9 3 1c5,-5 7,-12 8,-20l0 -28 -1 -4 1 -26zm-45 110l0 50 4 3 12 0 4 -1 9 1 5 0 12 -1 -1 -19 0 -59 -7 0 -39 27zm71 -136l19 1 5 4c0,-1 1,-2 3,-3l15 -3c2,4 3,8 3,13l1 17 -1 17 1 16c-2,3 -3,6 -4,11l4 16 0 90c-2,4 -6,7 -12,7l-17 0c-5,0 -11,-1 -17,-3 1,-5 2,-10 4,-15 4,-1 8,-3 11,-7 2,-4 4,-8 5,-12l-5 -3 -9 5c-1,3 -2,5 -4,7l0 -156 -1 0 1 -4zm58 0l24 0 5 1 -3 15 -3 5 7 9c2,4 5,7 9,9 -5,2 -11,3 -17,4l-24 0 -1 -41c1,0 2,-1 3,-3zm37 0l29 0 1 4 -1 3 0 20 -3 16 -19 1c0,-5 -1,-9 -4,-15l-5 -13 1 -16zm-21 4c0,2 1,4 3,5 0,-2 -1,-4 -3,-5zm-57 48c0,1 1,2 3,3 0,-1 -1,-2 -3,-3zm-4 16c0,1 1,2 3,3 0,-1 -1,-2 -3,-3zm42 5l26 0 11 1 3 -1 18 0 0 40 1 0 -1 1 -20 3 -29 0 -9 -1 0 -42zm-21 16c1,2 2,4 4,5 -1,-2 -2,-4 -4,-5zm-29 3c0,1 1,2 3,3 0,-1 -1,-2 -3,-3zm82 13c-6,1 -11,5 -15,11 7,-1 11,-5 15,-11zm-82 3c1,2 2,5 4,7 -1,-2 -2,-5 -4,-7zm17 0l-1 4 4 3 1 -5 -4 -1zm33 37l20 0c1,3 2,6 4,9l0 -7 17 -3 -5 12c1,2 3,4 5,5l1 -4 -1 -1c4,-3 8,-5 13,-7 1,-1 1,-3 1,-5l13 1 0 37c-4,2 -9,3 -13,4l-34 0 0 -5c-2,0 -4,1 -5,3l-12 3c-2,0 -3,-1 -4,-3l0 -40zm-37 28l-4 7 9 3c-1,-3 -3,-7 -5,-9zm-1587 -172l45 1 0 73 -1 13 1 43 -1 11 1 3 0 37 -1 5 -29 1 -16 -1c1,-3 1,-7 1,-11l0 -171 -1 -1 1 -4z"/>
  <path class="fil4" d="M609 382l27 0 -31 -42 28 -37 -25 0 -26 37 0 0 0 -37 -21 0 0 79 21 0 0 -41 0 0 27 41zm73 1c26,0 44,-17 44,-41 0,-25 -18,-41 -44,-41 -25,0 -43,16 -43,41 0,25 19,41 43,41zm0 -66c13,0 22,11 22,25 0,13 -8,25 -22,25 -13,0 -21,-12 -21,-25 0,-14 8,-25 21,-25zm117 65l21 0 0 -79 -24 0 -18 20 -18 -20 -24 0 0 79 21 0 0 -58 0 0 21 23 21 -23 0 0 0 58zm88 0l21 0 0 -79 -76 0 0 79 21 0 0 -63 33 0 0 63zm62 0c23,0 32,-9 32,-26 0,-15 -10,-26 -29,-26l-11 0 0 -27 -21 0 0 79 29 0zm-2 -37c7,0 13,3 13,11 0,8 -6,11 -13,11l-5 0 0 -22 6 0zm110 38c26,0 40,-15 40,-41 0,-26 -14,-41 -40,-41 -22,0 -36,12 -39,31l-8 0 0 -30 -21 0 0 79 21 0 0 -33 7 0c2,22 16,35 39,35zm0 -66c13,0 17,12 17,25 0,13 -5,25 -17,25 -13,0 -17,-13 -17,-25 0,-13 5,-25 17,-25zm91 2l26 0 0 -16 -73 0 0 16 26 0 0 63 21 0 0 -63zm33 63l54 0 0 -15 -33 0 0 -17 29 0 0 -15 -29 0 0 -16 32 0 0 -15 -53 0 0 79zm93 -27c19,0 31,-10 31,-26 0,-18 -11,-26 -31,-26l-29 0 0 79 21 0 0 -27 8 0zm-4 -37c7,0 13,3 13,11 0,8 -6,11 -13,11l-5 0 0 -22 5 0zm110 64l21 0 0 -79 -21 0 0 79zm-39 0c23,0 32,-9 32,-26 0,-15 -10,-26 -29,-26l-10 0 0 -27 -21 0 0 79 28 0zm-2 -37c7,0 13,3 13,11 0,8 -6,11 -13,11l-4 0 0 -22 5 0zm169 37l0 -58 -23 0 -17 33 0 0 0 -33 -20 0 0 58 23 0 17 -33 0 0 0 33 20 0zm95 0l27 0 -31 -42 28 -37 -25 0 -26 37 0 0 0 -37 -21 0 0 79 21 0 0 -41 0 0 27 41zm73 1c26,0 44,-17 44,-41 0,-25 -18,-41 -44,-41 -25,0 -43,16 -43,41 0,25 19,41 43,41zm0 -66c13,0 22,11 22,25 0,13 -8,25 -22,25 -13,0 -21,-12 -21,-25 0,-14 8,-25 21,-25zm117 65l21 0 0 -79 -24 0 -18 20 -18 -20 -24 0 0 79 21 0 0 -58 0 0 21 23 21 -23 0 0 0 58zm88 0l21 0 0 -79 -76 0 0 79 21 0 0 -63 33 0 0 63zm83 0l21 0 0 -79 -62 0 0 40c0,11 -1,22 -8,22 -2,0 -5,-1 -7,-1l0 17c4,1 9,2 13,2 17,0 23,-16 23,-36l0 -28 19 0 0 63zm34 0l54 0 0 -15 -33 0 0 -17 29 0 0 -15 -29 0 0 -16 32 0 0 -15 -53 0 0 79zm113 0l27 0 -31 -42 28 -37 -25 0 -26 37 0 0 0 -37 -21 0 0 79 21 0 0 -41 0 0 27 41zm74 -63l26 0 0 -16 -73 0 0 16 26 0 0 63 21 0 0 -63zm66 63l40 -79 -23 0 -16 37 0 0 -16 -37 -24 0 29 57 -13 22 23 0zm114 1c26,0 40,-15 40,-41 0,-26 -14,-41 -40,-41 -22,0 -36,12 -39,31l-8 0 0 -30 -21 0 0 79 21 0 0 -33 7 0c2,22 16,35 39,35zm0 -66c13,0 17,12 17,25 0,13 -5,25 -17,25 -13,0 -17,-13 -17,-25 0,-13 5,-25 17,-25zm148 84l21 0 0 -35 -7 0 0 -63 -21 0 0 63 -24 0 0 -63 -21 0 0 63 -24 0 0 -63 -21 0 0 79 99 0 0 19zm82 -19l21 0 0 -79 -24 0 -31 52 0 0 0 -52 -21 0 0 79 25 0 29 -50 0 0 0 50zm33 0l54 0 0 -15 -33 0 0 -17 29 0 0 -15 -29 0 0 -16 32 0 0 -15 -53 0 0 79z"/>
 </g>
</svg>
