<?xml version="1.0" encoding="utf-8"?>
<!-- Generator: Adobe Illustrator 24.0.0, SVG Export Plug-In . SVG Version: 6.00 Build 0)  -->
<svg version="1.1" id="Слой_7_xA0_Изображение_1_"
	 xmlns="http://www.w3.org/2000/svg" xmlns:xlink="http://www.w3.org/1999/xlink" x="0px" y="0px" viewBox="0 0 1320 757"
	 style="enable-background:new 0 0 1320 757;" xml:space="preserve">
<style type="text/css">
	.st0{fill:#FFFFFF;}
</style>
<path class="st0" d="M1080,757c-4,0-8,0-12,0c-0.6-0.25-1.18-0.67-1.79-0.73c-20.34-2.13-38.47-10.05-55.55-20.9
	c-25.18-15.98-45.71-37.07-65.41-59.11c-19.88-22.23-39.63-44.57-59.89-66.45c-10.09-10.89-21.49-20.46-35.09-26.94
	c-9.56-4.56-19.37-6.07-29.41-1.61c-13.63,6.05-21.6,17.4-27.69,30.29c-8.85,18.74-12.88,38.81-15.09,59.23
	c-1.43,13.23-1.71,26.59-3.23,39.81c-1.16,10.04-4.16,19.79-12.31,26.59c-11.07,9.24-24.17,14.35-38.47,14.66
	c-24.98,0.55-49.99,0.41-74.98,0.06c-14.97-0.21-30.05-0.41-44.87-2.27c-66.38-8.33-127.04-32.38-183.17-68.35
	c-40.1-25.7-75.3-57.1-107.47-92.08c-40.71-44.27-76.41-92.39-109.59-142.43C141.41,352.39,87.55,253.1,38.83,150.99
	C24.63,121.25,7.8,92.52,0,60c0-1.33,0-2.67,0-4c1.19-13.96,11.16-18.77,22.83-21.11c7.79-1.56,15.81-2.74,23.73-2.77
	c60.49-0.22,120.99-0.12,181.48-0.11c1.66,0,3.38-0.11,4.98,0.24c22.51,4.88,42.15,13.37,48.19,38.75c0.04,0.16,0.14,0.3,0.21,0.45
	c28.54,69.47,62.92,135.89,103.78,198.92c17.4,26.84,34.82,53.69,56.88,77.09c8.48,9,17.54,17.4,29.33,22.01
	c13.56,5.3,27.16,1.01,34.71-11.43c3.24-5.35,5.9-11.23,7.82-17.19c8.14-25.3,10.71-51.58,10.87-77.9
	c0.21-36.8-0.66-73.62-2.02-110.4c-0.81-21.98-4.49-43.69-11.65-64.68c-2.05-6.01-5.14-11.07-10.09-15.1
	c-14.78-12.02-31.8-18.56-50.58-20.66c-6.8-0.76-8.14-2.67-4.84-8.86c1.48-2.77,3.33-5.4,5.38-7.78
	c9.43-10.98,21.06-18.79,34.74-23.52c18.92-6.55,38.6-8.62,58.4-9.95c11.28-0.76,22.57-1.34,33.86-2c30.33,0,60.67,0,91,0
	c3.8,0.33,7.59,0.76,11.39,0.99c20.99,1.25,41.85,3.53,61.92,10.12c16.8,5.51,28.8,16.64,32.69,34.08
	c2.88,12.89,4.58,26.28,4.76,39.48c0.3,21.47-1.15,42.96-1.72,64.44c-1,37.81-1.95,75.62-2.82,113.43
	c-0.47,20.67-0.51,41.35,3.83,61.7c2.82,13.23,7.52,25.56,18.77,34.28c4.44,3.44,9.42,4.79,14.52,2.75
	c5.81-2.32,11.76-4.88,16.76-8.53c20.57-15.04,35.94-35.04,50.98-55.24c45.42-60.98,80.68-127.63,109.9-197.62
	c6.15-14.74,11.99-29.61,18.2-44.31c5.84-13.82,19.5-27.51,36.04-24.29c2.75,0.54,5.62,0.7,8.43,0.7
	c63.66,0.04,127.31,0.04,190.97,0.01c3.32,0,6.65-0.31,9.97-0.54c15.72-1.05,31.35-0.99,46.33,4.77
	c11.9,4.58,16.92,12.13,17.14,24.84c0.27,15.35-4.56,29.52-10.41,43.37c-14.99,35.47-35.21,68.05-57.55,99.16
	c-35.56,49.5-72.24,98.2-108.42,147.26c-11.96,16.21-23.99,32.34-32.93,50.56c-9.74,19.86-8.55,38.83,5.92,55.42
	c14.53,16.65,29.93,32.66,46.03,47.8c37.64,35.41,75.55,70.57,108.01,110.92c21.42,26.63,43.9,52.91,52.27,87.46c0,3.67,0,7.33,0,11
	c-3.09,12.92-10.71,22.21-22.52,28.15c-12.23,6.16-25.28,9.46-38.88,9.81c-57.59,1.48-115.19,2.7-172.79,4.07
	C1083.87,756.08,1081.94,756.67,1080,757z"/>
</svg>
